# xmcd
#
# Track frame offsets: 
#        150
#        11575
#        23897
#        35691
#        51654
#        65412
#        79728
#        94107
#        107160
#        119465
#        132847
#        154432
#
# Disc length: 2249 seconds
#
# Revision: 0
# Processed by: cddbd v1.5.2PL0 Copyright (c) Steve Scherf et al.
# Submitted via: ExactAudioCopy v1.0b2
#
DISCID=a508c70c
DTITLE=Willie Tee - I'm Only A Man 
DYEAR=1969
DGENRE=Soul
TTITLE0=Bring On The Heartaches
TTITLE1=I'm Only A Man
TTITLE2=Loneliness
TTITLE3=Reach Out For Me
TTITLE4=No Answer Came
TTITLE5=Walk Tall (Baby, That's What I Need)
TTITLE6=Mirror
TTITLE7=By The Time I Get To Phoenix
TTITLE8=I'm Take Your Time
TTITLE9=Related To You
TTITLE10=People
TTITLE11=Love Of A Married Man
EXTD=
EXTT0=
EXTT1=
EXTT2=
EXTT3=
EXTT4=
EXTT5=
EXTT6=
EXTT7=
EXTT8=
EXTT9=
EXTT10=
EXTT11=
PLAYORDER=
